# xmcd CD database file
#
# Track frame offsets:
#	150
#	36008
#	66939
#	87034
#	112401
#	132057
#	150623
#	176365
#
# Disc length: 2594 seconds
#
# Revision: 0
# Processed by: cddbd v1.4PL0 Copyright (c) Steve Scherf et al.
# Submitted via: CDex 1.50Beta7
#
DISCID=620a2008
DTITLE=Stone/Franke - Think Visual
DYEAR=1997
DGENRE=New Age
TTITLE0=shimmering heat
TTITLE1=spanish walls
TTITLE2=spirit of light
TTITLE3=indian summer
TTITLE4=green hills
TTITLE5=windmills
TTITLE6=sunrise
TTITLE7=voices
EXTD=YEAR: 1997
EXTT0=
EXTT1=
EXTT2=
EXTT3=
EXTT4=
EXTT5=
EXTT6=
EXTT7=
PLAYORDER=
